<svg width="17" height="17" viewBox="0 0 17 17" fill="none" xmlns="http://www.w3.org/2000/svg">
<g clip-path="url(#clip0_1_729)">
<path d="M13.8125 14.3436L3.1875 2.65613" stroke="black" stroke-opacity="0.7" stroke-width="2" stroke-linecap="round" stroke-linejoin="round"/>
<path d="M6.7132 6.53448C7.23449 6.06067 7.92264 5.81333 8.62629 5.84686C9.32993 5.8804 9.99144 6.19207 10.4653 6.71332C10.9392 7.23457 11.1866 7.9227 11.1531 8.62635C11.1196 9.33 10.808 9.99153 10.2868 10.4654M12.0863 12.4449C14.7936 11.0739 15.9375 8.49996 15.9375 8.49996C15.9375 8.49996 13.8125 3.71923 8.5 3.71923C7.25528 3.70931 6.02611 3.99601 4.91422 4.55559M3.14702 5.7707C1.69925 7.06743 1.0625 8.49996 1.0625 8.49996C1.0625 8.49996 3.1875 13.2817 8.5 13.2817C8.96011 13.2825 9.4195 13.2451 9.87343 13.1699M8.00014 11.1092C7.43557 11.0008 6.92137 10.7123 6.53467 10.2869C6.14797 9.86149 5.90961 9.32219 5.85536 8.74988" stroke="black" stroke-opacity="0.7" stroke-width="1.5" stroke-linecap="round" stroke-linejoin="round"/>
</g>
<defs>
<clipPath id="clip0_1_729">
<rect width="17" height="17" fill="white" transform="matrix(-1 0 0 -1 17 17)"/>
</clipPath>
</defs>
</svg>
